<svg
              xmlns="http://www.w3.org/2000/svg"
              xmlns:xlink="http://www.w3.org/1999/xlink"
              fill="#ED1C24"
              width="90px"
              height="90px"
              viewBox="0 0 90 90"
              version="1.1"
              class="h-12 w-auto mr-4"
              style="fill: rgba(fill-mixlr-red, 1)"
            >
              <title>Mixlr</title>
              <path
                d="M50.63364,44.9998413 C50.63364,48.1114113 48.1113,50.6337513 44.99964,50.6337513 C41.88789,50.6337513 39.36555,48.1114113 39.36555,44.9998413 C39.36555,41.8882713 41.88789,39.3657513 44.99964,39.3657513 C48.1113,39.3657513 50.63364,41.8882713 50.63364,44.9998413 Z"
                opacity="0.4"
              ></path>
              <path
                d="M50.63364,5.63412934 C50.63364,8.74570834 48.1113,11.2682913 44.99964,11.2682913 C41.88789,11.2682913 39.36555,8.74570834 39.36555,5.63412934 C39.36555,2.52255034 41.88789,1.99840144e-14 44.99964,1.99840144e-14 C48.1113,1.99840144e-14 50.63364,2.52255034 50.63364,5.63412934 Z"
                opacity="0.4"
              ></path>
              <path
                d="M50.63364,25.3169313 C50.63364,28.4285013 48.1113,30.9510213 44.99964,30.9510213 C41.88789,30.9510213 39.36555,28.4285013 39.36555,25.3169313 C39.36555,22.2052713 41.88789,19.6827513 44.99964,19.6827513 C48.1113,19.6827513 50.63364,22.2052713 50.63364,25.3169313 Z"
              ></path>
              <path
                d="M30.1959,8.09102134 C31.75173,10.7858913 30.8286,14.2315413 28.13373,15.7875513 C25.43895,17.3431113 21.99303,16.4199813 20.43729,13.7251113 C18.88146,11.0305113 19.80495,7.58463634 22.49946,6.02884234 C25.19433,4.47304834 28.64016,5.39636734 30.1959,8.09102134 Z"
              ></path>
              <path
                d="M13.72482,20.4376713 C16.4196,21.9934113 17.34273,25.4393313 15.78699,28.1341113 C14.23116,30.8288013 10.78533,31.7521113 8.090667,30.1962813 C5.395824,28.6405413 4.472505,25.1947113 6.028299,22.5000213 C7.584273,19.8051513 11.02995,18.8818413 13.72482,20.4376713 Z"
              ></path>
              <path
                d="M5.633946,39.3657513 C8.745525,39.3657513 11.26809,41.8882713 11.26809,44.9998413 C11.26809,48.1114113 8.745525,50.6337513 5.633946,50.6337513 C2.522358,50.6337513 -1.91846539e-14,48.1114113 -1.91846539e-14,44.9998413 C-1.91846539e-14,41.8882713 2.522358,39.3657513 5.633946,39.3657513 Z"
              ></path>
              <path
                d="M8.090523,59.8034913 C10.78533,58.2477513 14.23107,59.1707913 15.78699,61.8656613 C17.34282,64.5605313 16.41951,68.0061813 13.72464,69.5621913 C11.03004,71.1179313 7.584138,70.1944413 6.028344,67.4998413 C4.472559,64.8051513 5.395689,61.3593213 8.090523,59.8034913 Z"
              ></path>
              <path
                d="M20.4381,76.2743913 C21.99384,73.5795213 25.43976,72.6563913 28.13454,74.2122213 C30.82923,75.7679613 31.75254,79.2138813 30.19671,81.9084813 C28.64097,84.6031713 25.19514,85.5266613 22.50027,83.9708313 C19.80558,82.4149113 18.88227,78.9691713 20.4381,76.2743913 Z"
              ></path>
              <path
                d="M39.36555,84.3653913 C39.36555,81.2539113 41.88789,78.7313913 44.99946,78.7313913 C48.1113,78.7313913 50.63364,81.2539113 50.63364,84.3653913 C50.63364,87.4769613 48.1113,89.9994813 44.99946,89.9994813 C41.88789,89.9994813 39.36555,87.4769613 39.36555,84.3653913 Z"
              ></path>
              <path
                d="M59.80266,81.9085713 C58.24692,79.2137013 59.17005,75.7680513 61.86483,74.2120413 C64.5597,72.6562113 68.00553,73.5795213 69.56136,76.2743913 C71.11719,78.9690813 70.19361,82.4149113 67.49919,83.9707413 C64.80432,85.5264813 61.35849,84.6031713 59.80266,81.9085713 Z"
              ></path>
              <path
                d="M76.27383,69.5621013 C73.57905,68.0063613 72.65592,64.5604413 74.21166,61.8656613 C75.76749,59.1709713 79.21332,58.2476613 81.90801,59.8034913 C84.60288,61.3594113 85.52619,64.8051513 83.97036,67.4997513 C82.41435,70.1946213 78.9687,71.1179313 76.27383,69.5621013 Z"
              ></path>
              <path
                d="M84.36609,50.6337513 C81.25452,50.6337513 78.732,48.1114113 78.732,44.9998413 C78.732,41.8880913 81.25452,39.3657513 84.36609,39.3657513 C87.47766,39.3657513 90,41.8880913 90,44.9998413 C90,48.1114113 87.47766,50.6337513 84.36609,50.6337513 Z"
                opacity="0.4"
              ></path>
              <path
                d="M81.9081,30.1961913 C79.21332,31.7520213 75.76758,30.8287113 74.21166,28.1340213 C72.65583,25.4391513 73.57914,21.9933213 76.27401,20.4375813 C78.9687,18.8817513 82.41453,19.8050613 83.97027,22.4999313 C85.5261,25.1945313 84.60297,28.6404513 81.9081,30.1961913 Z"
                opacity="0.4"
              ></path>
              <path
                d="M69.56136,13.7251113 C68.00553,16.4199813 64.5597,17.3431113 61.86483,15.7875513 C59.17014,14.2315413 58.24683,10.7858913 59.80266,8.09102134 C61.3584,5.39636734 64.80432,4.47304834 67.4991,6.02884234 C70.19379,7.58463634 71.1171,11.0305113 69.56136,13.7251113 Z"
                opacity="0.4"
              ></path>
              <path
                d="M30.77118,30.2791713 C33.46587,31.8350013 34.38918,35.2806513 32.83335,37.9755213 C31.27752,40.6703013 27.83169,41.5934313 25.13709,40.0376913 C22.44222,38.4818613 21.51891,35.0362113 23.07465,32.3413413 C24.63066,29.6464713 28.07631,28.7233413 30.77118,30.2791713 Z"
              ></path>
              <path
                d="M25.13691,49.9619013 C27.83178,48.4061613 31.27743,49.3292913 32.83344,52.0240713 C34.38918,54.7189413 33.46569,58.1647713 30.771,59.7206013 C28.0764,61.2763413 24.63048,60.3530313 23.07474,57.6584313 C21.51891,54.9635613 22.44204,51.5177313 25.13691,49.9619013 Z"
              ></path>
              <path
                d="M39.36555,64.6826613 C39.36555,61.5710913 41.88789,59.0487513 44.99946,59.0487513 C48.1113,59.0487513 50.63364,61.5710913 50.63364,64.6826613 C50.63364,67.7943213 48.1113,70.3168413 44.99946,70.3168413 C41.88789,70.3168413 39.36555,67.7943213 39.36555,64.6826613 Z"
              ></path>
              <path
                d="M59.2281,59.7204213 C56.53341,58.1646813 55.6101,54.7187613 57.16593,52.0239813 C58.72176,49.3292913 62.16759,48.4059813 64.86228,49.9618113 C67.55706,51.5175513 68.48037,54.9634713 66.92463,57.6582513 C65.36862,60.3531213 61.92297,61.2762513 59.2281,59.7204213 Z"
              ></path>
              <path
                d="M64.86237,40.0376913 C62.1675,41.5934313 58.72185,40.6703013 57.16584,37.9755213 C55.6101,35.2806513 56.53359,31.8350013 59.22828,30.2791713 C61.92288,28.7233413 65.3688,29.6464713 66.92454,32.3413413 C68.48037,35.0362113 67.55724,38.4818613 64.86237,40.0376913 Z"
              ></path>
            </svg>