<svg xmlns="http://www.w3.org/2000/svg" width="90" height="90" fill="#ED1C24" class="h-12 w-auto mr-4" style="fill:rgba(fill-mixlr-red,1)"><path d="M50.634 45a5.634 5.634 0 1 1-11.268 0 5.634 5.634 0 0 1 11.268 0M50.634 5.634a5.634 5.634 0 1 1-11.269 0 5.634 5.634 0 0 1 11.269 0" opacity=".4"/><path d="M50.634 25.317a5.634 5.634 0 1 1-11.268 0 5.634 5.634 0 0 1 11.268 0M30.196 8.091a5.634 5.634 0 1 1-9.759 5.634 5.634 5.634 0 0 1 9.759-5.634M13.725 20.438a5.634 5.634 0 1 1-5.635 9.758 5.634 5.634 0 0 1 5.635-9.758M5.634 39.366a5.634 5.634 0 1 1 0 11.268 5.634 5.634 0 0 1 0-11.268M8.09 59.803a5.634 5.634 0 1 1 5.635 9.76 5.634 5.634 0 0 1-5.634-9.76M20.438 76.274a5.634 5.634 0 1 1 9.759 5.634 5.634 5.634 0 0 1-9.759-5.634M39.366 84.365a5.634 5.634 0 1 1 11.268 0 5.634 5.634 0 0 1-11.268 0M59.803 81.909a5.634 5.634 0 1 1 9.759-5.635 5.634 5.634 0 0 1-9.76 5.635M76.274 69.562a5.634 5.634 0 1 1 5.634-9.759 5.634 5.634 0 0 1-5.634 9.76"/><path d="M84.366 50.634a5.634 5.634 0 1 1 0-11.268 5.634 5.634 0 0 1 0 11.268M81.908 30.196a5.634 5.634 0 1 1-5.634-9.759 5.634 5.634 0 0 1 5.634 9.76M69.561 13.725a5.634 5.634 0 1 1-9.759-5.635 5.634 5.634 0 0 1 9.76 5.635" opacity=".4"/><path d="M30.771 30.28a5.634 5.634 0 1 1-5.634 9.758 5.634 5.634 0 0 1 5.634-9.759M25.137 49.962a5.634 5.634 0 1 1 5.634 9.759 5.634 5.634 0 0 1-5.634-9.76M39.366 64.683a5.634 5.634 0 1 1 11.267 0 5.634 5.634 0 0 1-11.267 0M59.228 59.72a5.634 5.634 0 1 1 5.635-9.758 5.634 5.634 0 0 1-5.635 9.758M64.862 40.038a5.634 5.634 0 1 1-5.634-9.76 5.634 5.634 0 0 1 5.634 9.76"/></svg>